<svg id="Layer_1" data-name="Layer 1" xmlns="http://www.w3.org/2000/svg" viewBox="0 0 50 39"><defs><style>.cls-1{fill:#fff;}.cls-2{fill:#231f20;}.cls-3,.cls-4{fill:none;stroke:#000;stroke-linecap:round;stroke-linejoin:round;}.cls-3{stroke-width:1.32px;}.cls-4{stroke-width:0.44px;}</style></defs><path class="cls-1" d="M6.13,21.79a4.81,4.81,0,0,1,0-6.82l1.51-1.52a2.24,2.24,0,0,0-3.08.07L1.28,16.8a2.24,2.24,0,0,0,0,3.16l3.28,3.28a2.23,2.23,0,0,0,3.08.07Z"/><path class="cls-1" d="M16.16,25a7.71,7.71,0,0,1,0-10.9L20,10.28l-.52-.52a4,4,0,0,0-5.6,0L8,15.58a4,4,0,0,0,0,5.6L13.83,27a3.94,3.94,0,0,0,4.91.55Z"/><rect class="cls-1" x="19.42" y="6.01" width="27.03" height="27.03" rx="6.63" transform="translate(-4.16 29.01) rotate(-45)"/><path class="cls-2" d="M33.79,18.51a1.36,1.36,0,1,1-1.92,0A1.36,1.36,0,0,1,33.79,18.51Z"/><polyline class="cls-3" points="20.37 19.47 32.91 19.55 37.55 14.91"/><line class="cls-4" x1="32.91" y1="19.55" x2="32.91" y2="28.3"/></svg>