<svg id="Layer_1" data-name="Layer 1" xmlns="http://www.w3.org/2000/svg" viewBox="0 0 50 39"><defs><style>.cls-1{fill:#5e6363;}.cls-2{fill:#101a1a;fill-opacity:0.26;}.cls-3{fill:#808282;}.cls-4{fill:#231f20;}.cls-5,.cls-6{fill:none;stroke:#000;stroke-linecap:round;stroke-linejoin:round;}.cls-5{stroke-width:1.31px;}.cls-6{stroke-width:0.44px;}</style></defs><path class="cls-1" d="M6,23.88A4.8,4.8,0,0,1,6,17.1l1.5-1.51a2.21,2.21,0,0,0-3.06.07L1.16,18.92a2.22,2.22,0,0,0,0,3.14l3.26,3.26a2.21,2.21,0,0,0,3.06.07Z"/><path class="cls-2" d="M16,27.05a7.65,7.65,0,0,1,0-10.84l3.77-3.78-.52-.51a3.94,3.94,0,0,0-5.57,0L7.85,17.7a4,4,0,0,0,0,5.58l5.79,5.79a3.94,3.94,0,0,0,4.88.54Z"/><rect class="cls-3" x="19.2" y="8.19" width="26.88" height="26.88" rx="6.59" transform="translate(-5.73 29.42) rotate(-45)"/><path class="cls-4" d="M33.49,20.62a1.35,1.35,0,0,1-1.91,1.91,1.36,1.36,0,0,1,0-1.91A1.35,1.35,0,0,1,33.49,20.62Z"/><polyline class="cls-5" points="20.14 21.58 32.62 21.65 37.23 17.04"/><line class="cls-6" x1="32.62" y1="21.65" x2="32.62" y2="30.35"/></svg>